<?xml version="1.0" standalone="no"?>
<!DOCTYPE svg PUBLIC "-//W3C//DTD SVG 20010904//EN"
 "http://www.w3.org/TR/2001/REC-SVG-20010904/DTD/svg10.dtd">
<svg version="1.0" xmlns="http://www.w3.org/2000/svg"
 width="315.000000pt" height="160.000000pt" viewBox="0 0 315.000000 160.000000"
 preserveAspectRatio="xMidYMid meet">

<g transform="translate(0.000000,160.000000) scale(0.100000,-0.100000)"
fill="#000000" stroke="none">
<path d="M1160 1388 c0 -88 -26 -126 -165 -240 -50 -42 -99 -87 -108 -102 -46
-70 -25 -135 74 -231 66 -64 66 -63 6 30 -35 55 -38 65 -34 114 4 54 5 55 104
150 56 53 110 116 123 141 26 50 32 131 12 165 -10 17 -11 14 -12 -27z"/>
<path d="M1260 1166 c-123 -46 -214 -118 -226 -180 -9 -48 -1 -74 41 -134 38
-56 43 -86 19 -120 -25 -37 1 -25 40 18 47 52 47 87 1 160 -19 30 -35 65 -35
77 0 32 70 105 141 149 33 19 59 37 59 40 0 5 3 6 -40 -10z"/>
<path d="M2130 935 c0 -118 1 -125 20 -125 19 0 20 7 20 125 0 118 -1 125 -20
125 -19 0 -20 -7 -20 -125z"/>
<path d="M1479 1030 c-22 -13 -32 -56 -19 -81 6 -11 31 -29 55 -39 48 -21 58
-31 49 -54 -7 -19 -74 -22 -92 -4 -9 9 -13 7 -18 -6 -9 -23 5 -36 47 -42 45
-7 87 10 99 41 15 40 -3 72 -57 98 -64 30 -64 52 0 51 38 0 47 3 47 17 0 9 -7
20 -16 23 -23 9 -77 7 -95 -4z"/>
<path d="M2407 1013 c-4 -3 -7 -14 -7 -24 0 -9 -6 -20 -12 -23 -10 -5 -10 -7
0 -12 8 -4 12 -29 12 -75 l0 -69 35 0 c24 0 35 5 35 15 0 8 -6 15 -14 15 -18
0 -26 22 -26 71 0 28 4 39 15 39 8 0 15 5 15 10 0 6 -7 10 -15 10 -9 0 -15 9
-15 25 0 24 -10 32 -23 18z"/>
<path d="M1667 958 c-41 -32 -39 -115 3 -138 39 -21 121 -6 106 18 -5 8 -15 8
-32 2 -31 -12 -59 1 -67 30 -5 18 0 20 49 20 52 0 54 1 54 28 0 15 -5 33 -12
40 -16 16 -80 15 -101 0z m73 -34 c0 -16 -45 -20 -55 -5 -7 12 25 30 42 24 7
-3 13 -11 13 -19z"/>
<path d="M1820 890 c0 -73 2 -80 20 -80 16 0 19 8 22 63 3 56 5 62 25 61 13 0
24 7 26 18 4 13 -1 18 -17 18 -12 0 -27 -5 -34 -12 -9 -9 -12 -9 -12 0 0 7 -7
12 -15 12 -12 0 -15 -16 -15 -80z"/>
<path d="M1930 968 c0 -2 13 -37 29 -78 24 -62 34 -76 54 -78 21 -3 27 5 55
72 37 89 37 86 14 86 -13 0 -23 -15 -36 -52 -11 -29 -22 -57 -26 -61 -4 -5
-17 19 -30 52 -16 45 -27 61 -41 61 -11 0 -19 -1 -19 -2z"/>
<path d="M2230 950 c-13 -13 -20 -33 -20 -60 0 -52 27 -80 78 -80 42 0 68 13
58 29 -5 7 -14 7 -31 -1 -21 -9 -29 -8 -45 7 -34 31 -25 45 30 45 48 0 50 1
50 28 0 15 -5 33 -12 40 -20 20 -85 15 -108 -8z m78 -23 c3 -12 -4 -17 -22
-17 -32 0 -42 16 -19 29 23 13 37 9 41 -12z"/>
<path d="M2510 956 c-6 -8 -10 -25 -8 -37 3 -22 10 -28 62 -48 26 -11 28 -14
14 -27 -11 -12 -20 -13 -43 -4 -31 12 -40 8 -32 -15 8 -20 80 -20 101 1 32 32
15 68 -40 83 -15 4 -29 12 -31 18 -6 16 26 24 47 13 20 -11 36 2 25 20 -9 15
-81 12 -95 -4z"/>
<path d="M1368 740 c101 -24 95 -126 -12 -194 -25 -16 -46 -30 -46 -32 0 -1
21 4 46 13 26 9 66 35 90 58 37 34 44 48 44 79 0 56 -37 86 -104 85 -47 -1
-48 -2 -18 -9z"/>
<path d="M772 724 c-184 -49 -123 -87 143 -88 164 0 291 15 335 41 l25 14 -25
-5 c-138 -26 -467 -33 -491 -9 -13 13 6 29 57 47 50 19 24 19 -44 0z"/>
<path d="M1660 645 c-7 -8 -10 -31 -8 -52 3 -26 -1 -42 -14 -55 -42 -42 -7
-108 58 -108 19 0 45 5 56 11 14 8 23 8 31 0 6 -6 20 -11 31 -11 19 0 19 1 -2
23 -29 31 -30 93 -2 102 40 13 21 28 -27 21 -54 -7 -64 -14 -40 -27 9 -6 17
-18 17 -27 -1 -21 -80 63 -80 85 0 19 27 28 45 13 12 -10 15 -9 15 8 0 32 -57
45 -80 17z m76 -174 c-9 -15 -49 -14 -64 1 -15 15 -15 41 0 56 10 10 19 6 41
-17 16 -16 26 -34 23 -40z"/>
<path d="M1960 546 c0 -89 -3 -116 -15 -126 -8 -7 -15 -19 -15 -26 0 -23 27
-16 49 12 18 23 21 41 21 140 0 107 -1 114 -20 114 -19 0 -20 -7 -20 -114z"/>
<path d="M2260 591 c-8 -6 -25 -8 -37 -4 -23 5 -23 5 -23 -121 0 -119 1 -126
20 -126 17 0 20 7 20 49 0 46 1 48 25 43 41 -7 72 6 85 38 14 33 7 92 -13 108
-19 16 -61 23 -77 13z m44 -37 c20 -19 21 -68 2 -84 -8 -6 -25 -10 -38 -8 -19
2 -24 10 -26 41 -5 59 28 86 62 51z"/>
<path d="M782 574 c-31 -21 -28 -33 16 -52 48 -21 298 -24 387 -3 55 12 58 14
40 28 -16 11 -36 12 -95 6 -105 -11 -289 -7 -306 8 -7 6 -11 15 -8 20 8 14 -9
11 -34 -7z"/>
<path d="M2052 578 c-7 -7 -12 -23 -12 -35 0 -19 10 -28 47 -44 41 -18 45 -21
31 -35 -11 -11 -21 -12 -41 -5 -18 7 -28 7 -33 -1 -10 -15 16 -28 57 -28 82 0
80 84 -3 104 -16 3 -28 10 -28 15 0 15 31 21 52 10 23 -12 33 -6 25 16 -8 18
-77 21 -95 3z"/>
<path d="M810 435 c-20 -24 13 -52 78 -66 68 -14 230 -7 292 13 l45 14 -25 14
c-19 11 -60 14 -176 11 -127 -2 -153 0 -167 13 -20 20 -31 20 -47 1z"/>
<path d="M656 354 c-85 -27 -121 -62 -78 -79 98 -39 515 -48 682 -14 134 26
206 62 170 84 -5 3 -10 0 -10 -8 0 -17 -30 -31 -106 -48 -66 -15 -517 -19
-595 -6 -49 8 -89 30 -77 43 4 4 31 15 60 25 65 22 26 25 -46 3z"/>
<path d="M1441 258 c-95 -44 -221 -61 -455 -62 -143 -1 -203 -4 -175 -9 71
-13 486 -1 544 15 60 18 107 41 124 62 16 19 17 19 -38 -6z"/>
</g>
</svg>
